<?xml version="1.0" encoding="UTF-8" standalone="no"?>
<!-- Created with Inkscape (http://www.inkscape.org/) -->

<svg
   width="920"
   height="376"
   viewBox="0 0 243.41666 99.483332"
   version="1.1"
   id="svg1"
   xmlns="http://www.w3.org/2000/svg"
   xmlns:svg="http://www.w3.org/2000/svg">
  <defs
     id="defs1" />
  <g
     id="layer1"
     transform="translate(4.4979158,-130.43957)">
    <g
       id="g1"
       transform="translate(5.2750199,5.1941198)">
      <text
         xml:space="preserve"
         style="font-size:8.81944px;font-family:audiowide;-inkscape-font-specification:audiowide;fill:#ffffff;fill-opacity:1;stroke-width:1;stroke-linejoin:round"
         x="44.930435"
         y="219.44853"
         id="text4-55-9-2-5-3"><tspan
           id="tspan4-4-0-9-0-9"
           style="font-size:8.81944px;fill:#ffffff;fill-opacity:1;stroke-width:1"
           x="44.930435"
           y="219.44853">PRODUCTIVITY UNLOCKED</tspan></text>
      <path
         style="fill:#fbe995;fill-opacity:1;stroke-width:1.26199"
         d="m 91.40251,157.17955 c -0.86273,-0.45643 -1.4546,-1.00491 -2.08213,-1.92955 -0.79795,-1.1757 -1.14159,-2.23465 -1.14282,-3.52167 -0.001,-1.04551 0.15896,-1.73866 0.59442,-2.57567 0.30132,-0.57918 1.15007,-1.5863 1.33685,-1.5863 0.0383,0 0.0892,0.53126 0.11296,1.18057 0.0489,1.33281 0.21186,2.09417 0.62357,2.91285 0.27892,0.55459 0.90344,1.38373 1.2825,1.70269 l 0.23938,0.20143 -0.25125,0.58293 c -0.13821,0.3206 -0.32017,0.7792 -0.40437,1.01909 -0.17885,0.50955 -0.19274,0.48764 0.57501,0.90817 l 0.52564,0.28794 0.34451,-0.99623 c 0.18946,-0.54791 0.35311,-0.99622 0.36368,-0.99622 0.0101,0 0.2493,0.10405 0.53053,0.23124 1.17592,0.53185 2.54142,0.80797 3.99965,0.80877 l 0.8471,4.8e-4 0.29549,-0.42903 c 0.38421,-0.55785 2.00587,-2.14083 2.77257,-2.70644 0.85035,-0.62732 1.97094,-1.24643 2.86997,-1.58563 l 0.77175,-0.29115 0.0225,-0.97709 c 0.0202,-0.87669 0.008,-0.98224 -0.12002,-1.02736 -0.29199,-0.10304 -0.66922,-0.44582 -0.82359,-0.74841 -0.44868,-0.87947 0.0521,-2.00718 1.01577,-2.2873 0.77738,-0.226 1.52394,0.11079 1.89459,0.85456 0.32117,0.64448 0.26092,1.17424 -0.20081,1.76585 -0.2175,0.27868 -0.22764,0.3294 -0.22764,1.14054 0,0.46689 0.0184,0.8489 0.0409,0.8489 0.0225,0 0.39168,-0.0581 0.8204,-0.12901 1.26557,-0.2094 3.50586,-0.15942 4.5613,0.10169 0.17896,0.0443 0.18009,0.0389 0.18009,-0.88453 0,-0.511 -0.0303,-0.92912 -0.0673,-0.92912 -0.037,0 -0.16309,-0.17594 -0.28014,-0.39101 -0.51618,-0.94838 -0.0415,-2.11049 0.96902,-2.37263 0.40012,-0.10372 0.87777,-0.0627 1.17928,0.10146 0.52329,0.28494 0.96642,1.11607 0.8849,1.6597 -0.0668,0.44537 -0.39381,0.93958 -0.77711,1.17442 l -0.30717,0.1882 0.0197,0.94536 0.0197,0.94535 0.88042,0.37778 c 2.18255,0.93649 3.92308,2.26568 5.40879,4.13049 l 0.43398,0.5447 1.04049,-0.0481 c 1.60617,-0.0742 2.74144,-0.32436 3.7391,-0.82382 0.20764,-0.10394 0.41,-0.18899 0.44968,-0.18899 0.0398,0 0.2456,0.44956 0.45759,0.99902 l 0.38545,0.99899 0.2454,-0.1617 c 0.13496,-0.089 0.41646,-0.25097 0.62555,-0.36006 0.20911,-0.109 0.3802,-0.21123 0.3802,-0.22697 0,-0.0157 -0.19148,-0.49237 -0.42549,-1.05914 l -0.42551,-1.03054 0.2799,-0.24012 c 0.62759,-0.53834 1.39575,-1.80742 1.65056,-2.72684 0.0788,-0.28404 0.14944,-0.94076 0.17611,-1.63521 0.0245,-0.6383 0.0738,-1.21457 0.10967,-1.2806 0.0515,-0.0952 0.14982,-0.0324 0.4729,0.30241 0.58028,0.6011 0.92688,1.18167 1.21526,2.03562 0.22369,0.66239 0.25106,0.84375 0.25115,1.66386 1e-4,1.01876 -0.1302,1.69919 -0.48886,2.55283 -0.68538,1.63127 -2.2779,3.12086 -3.35713,3.14015 -0.20843,0.003 -2.05376,0.001 -4.10073,-0.005 l -3.72175,-0.0113 -0.43186,-0.64333 c -1.54435,-2.30068 -4.44206,-4.1804 -7.35504,-4.77117 -1.09933,-0.22296 -3.53769,-0.19785 -4.69739,0.0483 -1.64997,0.3503 -3.17253,0.99416 -4.40369,1.86222 -0.93025,0.65591 -1.98679,1.797 -2.83292,2.829 -0.16258,0.19829 -0.42634,0.64031 -0.42634,0.64031 l -4.0914,0.04 -4.09139,0.04 z"
         id="path10-4-5-6-1" />
      <g
         id="g2"
         style="fill:#f7ce45;fill-opacity:1"
         transform="translate(-62.4774,62.80006)">
        <text
           xml:space="preserve"
           style="font-size:26.4583px;font-family:audiowide;-inkscape-font-specification:audiowide;fill:#f7ce45;fill-opacity:1;stroke-width:1;stroke-linejoin:round"
           x="57.708183"
           y="142.67439"
           id="text3-1-4-5-3-7"><tspan
             id="tspan3-7-3-7-7-5"
             style="font-style:normal;font-variant:normal;font-weight:normal;font-stretch:normal;font-size:26.4583px;font-family:'Days One';-inkscape-font-specification:'Days One';fill:#f7ce45;fill-opacity:1;stroke-width:1"
             x="57.708183"
             y="142.67439">AUTOPRENEUR</tspan></text>
        <rect
           style="fill:#f7ce45;fill-opacity:1;stroke-width:0.684347;stroke-linejoin:round"
           id="rect6-18-5-7-2-0"
           width="11.468726"
           height="2.2937453"
           x="85.473213"
           y="152.41397"
           ry="1.1468726" />
        <rect
           style="fill:#f7ce45;fill-opacity:1;stroke-width:0.684347;stroke-linejoin:round"
           id="rect6-8-8-6-5-1-5"
           width="11.468726"
           height="2.2937453"
           x="253.63329"
           y="152.41397"
           ry="1.1468726" />
        <path
           style="fill:#f7ce45;fill-opacity:1;stroke-width:1.26199"
           d="m 187.41409,82.44154 v -1.44445 l -0.30014,0.239262 c -0.57072,0.454995 -1.22585,0.792656 -1.88061,0.969342 -0.9173,0.247509 -2.33297,0.199675 -3.37793,-0.114086 -3.77526,-1.133722 -6.75646,-4.794164 -6.97802,-8.567961 -0.0444,-0.755676 0.0549,-1.916097 0.17367,-2.031362 0.0296,-0.02865 0.1829,0.109894 0.34072,0.308019 0.15781,0.198091 0.71985,0.783262 1.249,1.300373 0.80183,0.783622 1.07072,0.993287 1.61437,1.258887 0.81585,0.398587 1.48738,0.55953 2.34111,0.561047 0.65291,0.0011 0.66468,-0.0022 0.61278,-0.178922 -0.0291,-0.09911 -0.19879,-0.439005 -0.37705,-0.755462 -1.08422,-1.924783 -3.13309,-3.605888 -5.24348,-4.30228 l -0.66031,-0.217878 v -0.624444 -0.624432 l 0.42018,-0.167966 c 0.73869,-0.295276 1.41406,-0.408474 2.44454,-0.40971 1.51723,-0.0011 2.74964,0.323941 4.4514,1.176623 2.76345,1.38466 5.118,3.907446 6.78108,7.265633 1.03243,2.084703 1.42089,3.75638 1.56339,6.727756 l 0.0516,1.076494 h -1.61317 -1.61317 z"
           id="path16-6-5-7-6" />
        <path
           style="fill:#f7ce45;fill-opacity:1;stroke-width:1.26199"
           d="m 154.37385,82.545366 c 0.0954,-2.310346 0.39081,-3.82226 1.07327,-5.494095 0.7133,-1.747378 1.54915,-3.110766 2.8733,-4.686696 1.66517,-1.981798 3.46188,-3.333354 5.40246,-4.063961 1.23397,-0.46458 1.89787,-0.595228 3.24155,-0.637961 1.38008,-0.04394 2.04031,0.04888 2.68297,0.376664 l 0.31844,0.162459 v 0.622972 0.622949 l -0.86987,0.336762 c -1.86117,0.720528 -3.44154,1.918153 -4.50828,3.416438 -0.38698,0.543505 -0.70997,1.113496 -0.87099,1.536983 l -0.0785,0.20635 0.90274,-0.04427 c 0.97023,-0.04753 1.67043,-0.237656 2.48377,-0.674177 0.39585,-0.21244 2.28641,-1.996226 2.69131,-2.539293 0.26975,-0.361798 0.34313,-0.179304 0.38891,0.967195 0.0589,1.476519 -0.24132,2.813872 -0.9452,4.209779 -1.28873,2.5558 -3.39199,4.387183 -5.99715,5.221909 -0.88684,0.284164 -2.36724,0.359944 -3.28156,0.168011 -0.71185,-0.149448 -1.58492,-0.561608 -2.06954,-0.977016 l -0.34873,-0.298929 0.0588,1.454259 0.0588,1.454271 -1.63099,4.5e-5 -1.63099,6.7e-5 z"
           id="path15-3-3-1-3" />
        <path
           style="fill:#f7ce45;fill-opacity:1;stroke-width:1.26199"
           d="m 159.28657,107.43527 c -0.0897,-0.28261 -0.26813,-1.6523 -0.22864,-1.75517 0.0509,-0.13263 1.12742,-0.84635 2.39809,-1.58986 l 0.97466,-0.57033 -0.61449,-0.59905 -0.6145,-0.59903 -0.62792,0.18491 c -0.94397,0.278 -1.56166,0.39212 -1.64577,0.3041 -0.16661,-0.17437 -1.45998,-3.097224 -1.39686,-3.156756 0.0379,-0.03573 0.33897,-0.12039 0.66914,-0.188214 0.33017,-0.06776 0.783,-0.163055 1.00632,-0.211631 l 0.40605,-0.08832 -0.11951,-0.556676 -0.11951,-0.556663 h -2.89825 -2.89828 l -0.0947,0.380181 c -0.13658,0.547674 -0.37278,0.91254 -1.28527,1.985419 -0.54513,0.64095 -0.91379,1.16317 -1.12585,1.59479 -0.3291,0.66983 -0.63453,1.71694 -0.63453,2.17531 0,0.42672 -0.20473,0.3249 -0.46832,-0.23291 -0.55882,-1.1826 -0.74699,-2.38318 -0.59156,-3.77417 0.17498,-1.565911 0.75512,-2.741895 1.99336,-4.04065 0.68447,-0.717921 0.74493,-0.762272 0.9063,-0.664839 1.05696,0.63813 1.19652,0.655962 5.13314,0.655962 h 3.41763 l 0.391,0.309076 c 0.21506,0.169988 0.67426,0.584182 1.02048,0.920428 0.34621,0.336257 0.64171,0.611375 0.65667,0.611375 0.0148,0 0.0276,-0.135076 0.0281,-0.300142 0.002,-0.649917 0.42449,-1.749626 1.01219,-2.635041 0.42216,-0.636017 1.53969,-1.788527 2.26197,-2.332785 1.11202,-0.837929 2.7705,-1.567076 4.33064,-1.903984 1.01472,-0.219115 3.13597,-0.203462 4.14417,0.03056 1.56372,0.363001 3.26656,1.213076 4.51404,2.253433 1.4597,1.217334 2.34979,2.572329 2.72698,4.151281 l 0.17213,0.720584 0.80338,-0.764935 c 1.23112,-1.172185 0.72616,-1.059223 4.7368,-1.059572 3.22479,-2.81e-4 3.48686,-0.01135 3.96188,-0.159774 0.27977,-0.08765 0.66304,-0.248431 0.85174,-0.357179 l 0.34305,-0.197709 0.60196,0.571811 c 1.01278,0.962026 1.75074,2.233521 2.07812,3.580492 0.19861,0.817148 0.12731,2.588978 -0.14046,3.490478 -0.19248,0.64805 -0.56905,1.39552 -0.70303,1.39552 -0.0396,0 -0.0949,-0.17108 -0.12306,-0.38017 -0.1776,-1.31532 -0.62715,-2.28936 -1.57355,-3.40946 -0.95641,-1.131965 -1.32627,-1.679415 -1.47105,-2.177424 l -0.12732,-0.43796 -2.88909,0.0209 -2.88909,0.0209 -0.10844,0.477288 c -0.0596,0.262488 -0.093,0.517336 -0.0742,0.566305 0.0188,0.04899 0.46692,0.172381 0.99583,0.274242 0.5289,0.101804 1.0013,0.209698 1.04977,0.239666 0.095,0.05866 -1.36674,3.244783 -1.48852,3.244783 -0.0369,0 -0.55836,-0.12456 -1.15897,-0.27673 l -1.09199,-0.27671 -0.55865,0.59637 -0.55866,0.59638 0.25,0.16568 c 0.13749,0.0911 0.75029,0.45153 1.36178,0.80087 0.6115,0.34936 1.25444,0.76139 1.42875,0.9156 l 0.31696,0.28042 -0.12814,0.86255 c -0.0704,0.47441 -0.12814,0.89748 -0.12814,0.94017 0,0.0481 -0.76357,0.0776 -2.00541,0.0776 h -2.00539 l -1.60624,-0.85398 -1.60622,-0.85398 -0.37025,0.14428 c -1.75334,0.68326 -2.89132,0.95095 -4.6189,1.08652 -1.94405,0.15255 -3.67809,-0.091 -5.75462,-0.80832 l -1.17076,-0.40442 -0.86518,0.48215 c -0.47585,0.26519 -1.20061,0.64543 -1.61058,0.84496 l -0.74539,0.36279 h -1.98136 c -1.82602,0 -1.98488,-0.0113 -2.02637,-0.14181 z"
           id="path9-6-5-7-4" />
      </g>
      <g
         id="g3"
         style="fill:#fdfdfd;fill-opacity:1"
         transform="translate(-62.4774,62.80006)">
        <path
           style="fill:#fdfdfd;fill-opacity:1;stroke-width:1.26199"
           d="m 182.73188,89.77866 c -0.22011,-0.232206 -0.57494,-0.567373 -0.78851,-0.7448 l -0.38833,-0.322604 0.74109,-0.775194 0.74109,-0.775195 -0.0509,-1.634158 -0.0509,-1.634146 1.51902,-0.02337 1.51902,-0.02337 -9e-5,1.775515 -9e-5,1.775527 -0.55997,0.505548 c -0.30797,0.278051 -0.92457,0.910753 -1.37022,1.405986 -0.44564,0.495234 -0.83296,0.898618 -0.8607,0.896427 -0.0278,-0.0022 -0.23055,-0.194001 -0.45065,-0.426217 z"
           id="path14-0-0-5-2" />
        <path
           style="fill:#fdfdfd;fill-opacity:1;stroke-width:1.26199"
           d="m 160.30128,88.772058 -1.38066,-1.425168 v -1.71814 -1.718152 l 1.02048,-0.05203 c 0.56126,-0.02865 1.24746,-0.05225 1.52486,-0.05236 l 0.50435,-3.26e-4 -0.0142,1.700803 -0.0142,1.700802 0.70096,0.743878 0.70096,0.743878 -0.78262,0.736832 c -0.43042,0.40525 -0.80442,0.743193 -0.83107,0.750991 -0.0266,0.0079 -0.66978,-0.62714 -1.42911,-1.410976 z"
           id="path13-8-4-5-6" />
        <path
           style="fill:#fdfdfd;fill-opacity:1;stroke-width:1.26199"
           d="m 158.71866,90.930192 c -1.94393,-0.285759 -3.25133,-1.306834 -3.88041,-3.030627 -0.19613,-0.537404 -0.27683,-0.949452 -0.43722,-2.232836 l -0.0326,-0.260117 h 1.59571 1.59572 v 1.322217 1.32224 l 1.47273,1.479092 1.4727,1.479103 -0.69233,-0.01011 c -0.3808,-0.0045 -0.87327,-0.03663 -1.09441,-0.06899 z"
           id="path12-4-8-8-8" />
        <path
           style="fill:#fdfdfd;fill-opacity:1;stroke-width:1.26199"
           d="m 185.15263,90.31521 c 0.40105,-0.432656 1.07392,-1.128104 1.49532,-1.545433 l 0.76614,-0.758778 v -1.302193 -1.302194 h 1.55951 1.55951 l -0.0474,0.500233 c -0.15765,1.661374 -0.6222,2.825626 -1.46458,3.67051 -0.94506,0.947846 -1.87382,1.289687 -4.00271,1.473227 l -0.59487,0.05124 z"
           id="path11-0-5-5-9" />
        <path
           style="fill:#fdfdfd;fill-opacity:1;stroke-width:1.26199"
           d="m 189.73519,112.05586 c 0,-0.0492 0.0796,-0.38367 0.17677,-0.74316 0.1479,-0.54672 0.17734,-0.86967 0.18009,-1.97427 0.003,-1.58057 -0.0837,-1.98346 -0.69337,-3.19004 -0.40528,-0.802 -0.4199,-0.85422 -0.45014,-1.60714 l -0.0314,-0.77818 -0.75146,-0.18118 c -0.41333,-0.0997 -0.77071,-0.21227 -0.79421,-0.2503 -0.0443,-0.0717 0.51964,-1.35334 1.13756,-2.58529 0.31405,-0.62611 0.37566,-0.70278 0.53055,-0.66 0.0964,0.0266 0.48137,0.10945 0.85555,0.18402 0.64019,0.12762 0.70402,0.15948 1.08203,0.53995 1.19476,1.20257 1.88371,3.34376 1.77364,5.5124 -0.0842,1.65854 -0.51151,2.94187 -1.41465,4.24832 -0.56741,0.8208 -1.60109,1.77944 -1.60109,1.48487 z"
           id="path8-4-4-9-8" />
        <path
           style="fill:#fdfdfd;fill-opacity:1;stroke-width:1.26199"
           d="m 154.60388,111.69833 c -1.49467,-1.42503 -2.34539,-3.30643 -2.4604,-5.44136 -0.10889,-2.02132 0.43953,-3.86994 1.52766,-5.14933 0.56944,-0.66957 0.6619,-0.72624 1.47397,-0.9037 0.38094,-0.0833 0.75306,-0.17055 0.82693,-0.194 0.0911,-0.02888 0.1527,0.0163 0.19141,0.1408 0.0315,0.1008 0.37382,0.84089 0.76095,1.64443 0.80188,1.66439 0.82319,1.48622 -0.21271,1.77978 l -0.64817,0.18367 -0.0827,0.85228 c -0.0764,0.7864 -0.11125,0.90503 -0.45204,1.53532 -0.55535,1.02709 -0.70878,1.70237 -0.7162,3.15219 -0.006,0.99544 0.025,1.32708 0.17673,1.94091 0.10056,0.4072 0.16805,0.78484 0.14994,0.83918 -0.0193,0.0579 -0.24061,-0.0992 -0.53535,-0.38017 z"
           id="path7-6-2-4-8" />
        <path
           style="fill:#fdfdfd;fill-opacity:1;stroke-width:1.26199"
           d="m 178.32412,113.0138 c -0.22325,-0.0373 -0.49326,-0.10034 -0.60003,-0.13977 -0.17935,-0.0664 -0.14849,-0.0946 0.40588,-0.37224 1.42678,-0.71438 2.4851,-1.74288 3.15182,-3.06304 l 0.21219,-0.4202 h 1.87537 1.8754 l -0.0824,0.23644 c -0.12973,0.37209 -0.63386,1.15758 -1.05152,1.63834 -1.37034,1.57739 -3.77268,2.45771 -5.78671,2.12047 z"
           id="path6-4-1-1-7" />
        <path
           style="fill:#fdfdfd;fill-opacity:1;stroke-width:1.26199"
           d="m 164.54227,113.01605 c -2.01757,-0.3609 -3.98224,-1.86736 -4.73958,-3.63419 l -0.15604,-0.36404 1.69795,-0.001 c 0.9339,-5.8e-4 1.77546,-0.0218 1.87022,-0.0473 0.14968,-0.0401 0.21758,0.0412 0.51848,0.62138 0.59038,1.13833 1.90181,2.3658 3.13108,2.93061 0.25312,0.11636 0.46022,0.2383 0.46022,0.27108 0,0.21025 -1.97129,0.36864 -2.78233,0.22356 z"
           id="path2-3-6-3-9-6-1" />
      </g>
    </g>
  </g>
</svg>
